<svg width="66" height="14" viewBox="0 0 66 14" fill="none" xmlns="http://www.w3.org/2000/svg">
<path d="M0.615479 0.0114239L0.615479 13.3279L7.22367 13.3279L7.22367 8.52221L11.8048 8.52221L13.5846 5.60293L7.22367 5.60293L7.22367 2.90833L14.977 2.90833L16.6681 0.0114238L0.615479 0.0114239ZM18.6777 0.0114238L18.6602 13.3279L25.1971 13.3279L25.1971 0.0114238L18.6777 0.0114238ZM50.8018 8.98202L53.3217 3.43573L55.9297 8.9825L50.8018 8.98202ZM56.8109 0.0118997L50.0442 0.0118997L42.5366 13.3279L48.846 13.3279L49.6559 11.5429L57.0042 11.5429L57.8506 13.3279L64.3526 13.3279L56.8109 0.0114237L56.8109 0.0118997ZM29.6911 0.0114238L29.6911 13.3279L36.2992 13.3279L36.2992 8.52221L40.8804 8.52221L42.6777 5.60293L36.2992 5.60293L36.2992 2.90785L44.0525 2.90785L45.7618 0.0114237L29.6911 0.0114238ZM62.9603 1.42608L63.4191 1.42608C63.4896 1.42608 63.5594 1.42608 63.6299 1.41466C63.7004 1.41466 63.7535 1.39228 63.8066 1.38134C63.8561 1.36081 63.8979 1.33387 63.9294 1.30232C63.9677 1.26163 63.9861 1.21481 63.9825 1.16761C63.9865 1.12385 63.9679 1.08045 63.9294 1.04386C63.8945 1.01054 63.8589 0.988165 63.8066 0.977217C63.7539 0.955665 63.6927 0.943793 63.6299 0.942945C63.5594 0.942945 63.507 0.931997 63.4365 0.931997L62.9785 0.931997L62.9785 1.42608L62.9603 1.42608ZM62.4317 0.674008L63.4714 0.674008C63.8066 0.674008 64.0705 0.707328 64.2297 0.785867C64.4057 0.864406 64.4936 0.999113 64.4936 1.19046C64.4936 1.33612 64.4405 1.44845 64.2995 1.52699C64.1766 1.60553 64 1.65075 63.7709 1.6617L64.5111 2.43662L63.9825 2.43662L63.2598 1.67312L62.9603 1.67312L62.9603 2.43662L62.4317 2.43662L62.4317 0.673532L62.4317 0.674008ZM63.3834 2.81789C63.6481 2.81789 63.8763 2.78409 64.1061 2.72793C64.3351 2.66081 64.5293 2.58179 64.6878 2.46994C64.8463 2.3576 64.9873 2.22242 65.0927 2.07676C65.1807 1.91969 65.2338 1.75118 65.2338 1.57126C65.2338 1.39181 65.1807 1.22378 65.0927 1.06623C64.9866 0.90915 64.8637 0.785391 64.6878 0.673056C64.5111 0.560722 64.3351 0.471234 64.1061 0.415067C63.8767 0.356216 63.6313 0.325672 63.3834 0.325104C63.1188 0.325104 62.8905 0.358424 62.6607 0.415067C62.4317 0.482182 62.2383 0.560722 62.0798 0.673056C61.9206 0.785391 61.7803 0.920573 61.6916 1.06623C61.5991 1.22831 61.5514 1.3991 61.5505 1.57126C61.5505 1.75118 61.6036 1.91969 61.6916 2.07676C61.7977 2.23384 61.9206 2.3576 62.0791 2.46994C62.2558 2.58179 62.4499 2.67176 62.6607 2.72793C62.8731 2.78409 63.1195 2.81789 63.3834 2.81789ZM63.3834 3.1211C63.0562 3.12016 62.7326 3.07808 62.4317 2.99734C62.1396 2.91943 61.8758 2.80491 61.6567 2.66081C61.4365 2.51867 61.2628 2.35081 61.1456 2.16673C61.0187 1.97443 60.9527 1.76845 60.9514 1.56031C60.9534 1.15033 61.2058 0.756446 61.6567 0.459811C61.8807 0.319413 62.1432 0.205568 62.4317 0.123758C62.7312 0.0337954 63.0497 -2.31349e-07 63.3834 -2.32585e-07C63.7186 -2.33827e-07 64.0356 0.0333194 64.3351 0.123758C64.6347 0.202297 64.8811 0.314156 65.1102 0.460287C65.3225 0.606417 65.5159 0.763495 65.6387 0.954369C65.7623 1.14524 65.8329 1.34754 65.8329 1.56079C65.8329 1.77403 65.7623 1.97633 65.6387 2.1672C65.5173 2.35255 65.3375 2.52061 65.1102 2.66129C64.8943 2.80777 64.6297 2.92266 64.3351 2.99781C64.0343 3.07856 63.7106 3.12016 63.3834 3.1211Z" fill="#004C97"/>
</svg>
